<svg width="1240" height="660" viewBox="0 0 1240 660" fill="none" xmlns="http://www.w3.org/2000/svg">
<g clip-path="url(#clip0_532_6688)">
<rect width="1240" height="660" fill="url(#paint0_radial_532_6688)"/>
<g opacity="0.5" clip-path="url(#clip1_532_6688)">
<g filter="url(#filter0_df_532_6688)">
<path d="M975 144C975.915 142.309 977.309 140.915 979 140C977.309 139.085 975.915 137.691 975 136C974.085 137.691 972.691 139.085 971 140C972.691 140.915 974.085 142.309 975 144Z" fill="#F2D197"/>
</g>
<g filter="url(#filter1_df_532_6688)">
<path d="M596 439C596.915 437.309 598.309 435.915 600 435C598.309 434.085 596.915 432.691 596 431C595.085 432.691 593.691 434.085 592 435C593.691 435.915 595.085 437.309 596 439Z" fill="#F2D197"/>
</g>
<g opacity="0.70236" filter="url(#filter2_df_532_6688)">
<path d="M315.13 158.621C316.219 160.205 317.753 161.444 319.531 162.175C317.947 163.264 316.708 164.798 315.977 166.576C314.888 164.992 313.354 163.753 311.576 163.023C313.16 161.933 314.399 160.399 315.13 158.621Z" fill="#F2D197"/>
</g>
<g opacity="0.408675" filter="url(#filter3_df_532_6688)">
<path d="M190.708 530.464C190.557 532.38 190.968 534.308 191.889 535.996C189.972 535.844 188.044 536.255 186.356 537.176C186.508 535.259 186.097 533.332 185.176 531.644C187.093 531.796 189.021 531.384 190.708 530.464Z" fill="#F2D197"/>
</g>
<g opacity="0.653871" filter="url(#filter4_df_532_6688)">
<path d="M858.887 456.766C859.224 454.873 859.003 452.914 858.25 451.145C860.143 451.482 862.102 451.26 863.871 450.508C863.534 452.401 863.756 454.359 864.508 456.129C862.615 455.791 860.656 456.013 858.887 456.766Z" fill="#F2D197"/>
</g>
<g opacity="0.928139" filter="url(#filter5_df_532_6688)">
<path d="M444.323 585.421C444.324 587.344 444.888 589.233 445.94 590.842C444.017 590.843 442.128 591.406 440.519 592.459C440.518 590.536 439.954 588.647 438.902 587.038C440.825 587.037 442.714 586.473 444.323 585.421Z" fill="#F2D197"/>
</g>
<g opacity="0.01" filter="url(#filter6_df_532_6688)">
<path d="M812.058 186.64C811.921 184.723 811.226 182.878 810.062 181.347C811.98 181.21 813.825 180.515 815.356 179.351C815.493 181.269 816.188 183.114 817.351 184.644C815.434 184.782 813.589 185.477 812.058 186.64Z" fill="#F2D197"/>
</g>
<g opacity="0.144655" filter="url(#filter7_d_532_6688)">
<path d="M712.183 -5.49491C713.006 -7.2329 713.305 -9.18119 713.044 -11.086C714.782 -10.2637 716.73 -9.96394 718.635 -10.2257C717.812 -8.48769 717.513 -6.5394 717.774 -4.63462C716.036 -5.45686 714.088 -5.75665 712.183 -5.49491Z" fill="#F2D197"/>
</g>
<g opacity="0.887573" filter="url(#filter8_df_532_6688)">
<path d="M765.554 570.154C766.713 571.688 768.3 572.857 770.109 573.509C768.574 574.667 767.405 576.254 766.753 578.063C765.595 576.529 764.008 575.359 762.199 574.708C763.733 573.549 764.903 571.962 765.554 570.154Z" fill="#F2D197"/>
</g>
<g opacity="0.886216" filter="url(#filter9_df_532_6688)">
<path d="M625.942 272.882C624.509 271.6 622.726 270.76 620.825 270.471C622.106 269.037 622.947 267.254 623.236 265.353C624.669 266.635 626.452 267.475 628.353 267.764C627.072 269.198 626.232 270.981 625.942 272.882Z" fill="#F2D197"/>
</g>
<g opacity="0.247239" filter="url(#filter10_df_532_6688)">
<path d="M1092.94 482.071C1091.83 483.637 1091.19 485.502 1091.11 487.423C1089.55 486.308 1087.68 485.67 1085.76 485.592C1086.88 484.026 1087.51 482.161 1087.59 480.24C1089.16 481.355 1091.02 481.993 1092.94 482.071Z" fill="#F2D197"/>
</g>
<g opacity="0.192297" filter="url(#filter11_df_532_6688)">
<path d="M395.061 40.6917C396.218 39.1558 396.905 37.3084 397.034 35.39C398.57 36.5466 400.417 37.234 402.336 37.3628C401.179 38.8986 400.491 40.7461 400.363 42.6645C398.827 41.5079 396.979 40.8204 395.061 40.6917Z" fill="#F2D197"/>
</g>
</g>
<g filter="url(#filter12_f_532_6688)">
<g filter="url(#filter13_f_532_6688)">
<ellipse cx="968" cy="237.419" rx="100" ry="20.4839" fill="#E6A433"/>
</g>
<g opacity="0.8" filter="url(#filter14_f_532_6688)">
<ellipse cx="968" cy="237.42" rx="200" ry="24.5806" fill="#E6A433"/>
</g>
<g filter="url(#filter15_f_532_6688)">
<ellipse cx="968" cy="237.932" rx="62.5" ry="12.8024" fill="#FCF3E4"/>
</g>
</g>
<g filter="url(#filter16_f_532_6688)">
<g filter="url(#filter17_f_532_6688)">
<ellipse cx="968" cy="237.419" rx="100" ry="20.4839" fill="#E6A433"/>
</g>
<g opacity="0.8" filter="url(#filter18_f_532_6688)">
<ellipse cx="968" cy="237.42" rx="200" ry="24.5806" fill="#E6A433"/>
</g>
<g filter="url(#filter19_f_532_6688)">
<ellipse cx="968" cy="237.932" rx="62.5" ry="12.8024" fill="#FCF3E4"/>
</g>
</g>
<g filter="url(#filter20_f_532_6688)">
<g filter="url(#filter21_f_532_6688)">
<ellipse cx="968" cy="237.419" rx="100" ry="20.4839" fill="#E6A433"/>
</g>
<g opacity="0.8" filter="url(#filter22_f_532_6688)">
<ellipse cx="968" cy="237.42" rx="200" ry="24.5806" fill="#E6A433"/>
</g>
<g filter="url(#filter23_f_532_6688)">
<ellipse cx="968" cy="237.932" rx="62.5" ry="12.8024" fill="#FCF3E4"/>
</g>
</g>
<g filter="url(#filter24_f_532_6688)">
<g filter="url(#filter25_f_532_6688)">
<ellipse cx="968" cy="237.419" rx="100" ry="20.4839" fill="#E6A433"/>
</g>
<g opacity="0.8" filter="url(#filter26_f_532_6688)">
<ellipse cx="968" cy="237.42" rx="200" ry="24.5806" fill="#E6A433"/>
</g>
<g filter="url(#filter27_f_532_6688)">
<ellipse cx="968" cy="237.932" rx="62.5" ry="12.8024" fill="#FCF3E4"/>
</g>
</g>
<g filter="url(#filter28_f_532_6688)">
<g filter="url(#filter29_f_532_6688)">
<ellipse cx="968" cy="262" rx="127" ry="16.6667" transform="rotate(-90 968 262)" fill="#E6A433"/>
</g>
<g opacity="0.8" filter="url(#filter30_f_532_6688)">
<ellipse cx="968" cy="262" rx="254" ry="20" transform="rotate(-90 968 262)" fill="#E6A433"/>
</g>
<g filter="url(#filter31_f_532_6688)">
<ellipse cx="968.417" cy="262" rx="79.375" ry="10.4167" transform="rotate(-90 968.417 262)" fill="#FCF3E4"/>
</g>
</g>
<g filter="url(#filter32_f_532_6688)">
<g filter="url(#filter33_f_532_6688)">
<ellipse cx="968" cy="262" rx="127" ry="16.6667" transform="rotate(-90 968 262)" fill="#E6A433"/>
</g>
<g opacity="0.8" filter="url(#filter34_f_532_6688)">
<ellipse cx="968" cy="262" rx="254" ry="20" transform="rotate(-90 968 262)" fill="#E6A433"/>
</g>
<g filter="url(#filter35_f_532_6688)">
<ellipse cx="968.417" cy="262" rx="79.375" ry="10.4167" transform="rotate(-90 968.417 262)" fill="#FCF3E4"/>
</g>
</g>
<g filter="url(#filter36_f_532_6688)">
<g filter="url(#filter37_f_532_6688)">
<ellipse cx="968" cy="262" rx="127" ry="16.6667" transform="rotate(-90 968 262)" fill="#E6A433"/>
</g>
<g opacity="0.8" filter="url(#filter38_f_532_6688)">
<ellipse cx="968" cy="262" rx="254" ry="20" transform="rotate(-90 968 262)" fill="#E6A433"/>
</g>
<g filter="url(#filter39_f_532_6688)">
<ellipse cx="968.417" cy="262" rx="79.375" ry="10.4167" transform="rotate(-90 968.417 262)" fill="#FCF3E4"/>
</g>
</g>
<g filter="url(#filter40_f_532_6688)">
<g filter="url(#filter41_f_532_6688)">
<ellipse cx="968" cy="262" rx="127" ry="16.6667" transform="rotate(-90 968 262)" fill="#E6A433"/>
</g>
<g opacity="0.8" filter="url(#filter42_f_532_6688)">
<ellipse cx="968" cy="262" rx="254" ry="20" transform="rotate(-90 968 262)" fill="#E6A433"/>
</g>
<g filter="url(#filter43_f_532_6688)">
<ellipse cx="968.417" cy="262" rx="79.375" ry="10.4167" transform="rotate(-90 968.417 262)" fill="#FCF3E4"/>
</g>
</g>
<path d="M941.127 253.502H853.119C849.347 253.502 847.462 253.502 846.29 252.33C845.119 251.159 845.119 249.273 845.119 245.502V223.414C845.119 219.643 845.119 217.757 846.29 216.586C847.462 215.414 849.347 215.414 853.119 215.414H941.127C944.899 215.414 946.784 215.414 947.956 214.243C949.127 213.071 949.127 211.185 949.127 207.414V119.539C949.127 115.767 949.127 113.882 950.299 112.71C951.47 111.539 953.356 111.539 957.127 111.539H979.264C983.035 111.539 984.921 111.539 986.092 112.71C987.264 113.882 987.264 115.767 987.264 119.539V207.414C987.264 211.185 987.264 213.071 988.435 214.243C989.607 215.414 991.493 215.414 995.264 215.414H1083.27C1087.04 215.414 1088.93 215.414 1090.1 216.586C1091.27 217.757 1091.27 219.643 1091.27 223.414V245.502C1091.27 249.273 1091.27 251.159 1090.1 252.33C1088.93 253.502 1087.04 253.502 1083.27 253.502H995.264C991.493 253.502 989.607 253.502 988.435 254.674C987.264 255.845 987.264 257.731 987.264 261.502V503.5C987.264 507.271 987.264 509.157 986.092 510.328C984.921 511.5 983.035 511.5 979.264 511.5H957.127C953.356 511.5 951.47 511.5 950.299 510.328C949.127 509.157 949.127 507.271 949.127 503.5V261.502C949.127 257.731 949.127 255.845 947.956 254.674C946.784 253.502 944.899 253.502 941.127 253.502Z" fill="#0D0C0E"/>
<path d="M857.079 237.729C858.067 237.729 859.444 238.172 860.141 238.713L909.97 266.408C920.912 268.878 923.393 269.681 931.784 273.466C937.298 275.953 941.529 277.524 943.333 277.754C944.899 277.954 947.71 278.731 949.584 279.481C953.38 281.001 955.23 280.911 957.796 279.084L959.357 277.971L959.21 270.986L959.063 264.001V263.568C959.063 263.568 958.054 250.671 963.887 242.44C970.338 233.339 983.211 236.549 983.211 236.549L985.004 236.886C985.991 237.072 987.781 237.934 988.981 238.803L991.162 240.383C991.162 240.383 993.954 248.102 994.194 253.264C994.408 257.866 993.295 263.568 993.295 263.568V265.692C993.295 267.144 992.958 268.121 992.231 268.779C991.646 269.308 990.929 270.628 990.637 271.711C989.828 274.718 988.329 276.215 984.82 277.528C983.059 278.187 981.619 278.918 981.619 279.153C981.619 280.137 987.722 280.349 991.172 279.485C993.069 279.009 996.055 278.397 997.806 278.124C1002.16 277.446 1006.22 275.84 1010.3 273.189C1012.18 271.964 1015.4 270.329 1017.44 269.556C1019.49 268.784 1022.59 267.278 1024.34 266.21L1027.53 264.269L1077.06 239.304C1077.86 238.711 1079.23 238.173 1080.09 238.11C1081.36 238.017 1081.69 238.225 1081.83 239.189L1082 240.383L1053.17 264.266L1049.64 266.242C1044.91 268.885 1032.5 278.226 1025.94 284.082C1019.73 289.613 1014.48 293.21 1009.51 295.322C1006.11 296.768 1005.81 297.041 1002.83 301.566C998.427 308.255 994.007 317.404 992.777 322.381C991.515 327.485 990.267 336.807 989.785 344.745C989.467 349.985 989.543 350.79 990.55 352.922C991.165 354.223 992.212 355.96 992.878 356.784C994.171 358.381 994.258 359.628 993.84 370.413C993.702 373.98 993.97 376.146 995.119 380.762C995.919 383.973 996.703 388.659 996.861 391.177C997.122 395.352 997.024 396.027 995.723 398.872C994.938 400.588 993.74 402.589 993.063 403.318C992.384 404.048 991.661 405.6 991.454 406.768C991.247 407.936 990.376 410.541 989.52 412.557C988.663 414.574 987.381 418.521 986.669 421.329C985.957 424.137 984.744 428.099 983.974 430.135L982.572 433.835L956.938 442.858C956.097 427.047 956.097 427.041 954.491 416.09C953.26 407.687 952.351 405.736 948.207 402.585C943.454 398.972 943.171 398.166 942.952 387.662C942.625 372.029 944.409 357.153 947.144 352.718C949.115 349.52 949.743 346.868 949.76 341.679C949.787 333.234 946.898 323.272 940.777 310.705C934.761 298.354 929.854 293.893 910.994 283.626C903.171 279.367 896.581 275.435 885.973 268.695L878.165 263.735L854 240.537L854.641 239.134C855.149 238.017 855.65 237.729 857.079 237.729Z" fill="#0D0C0E"/>
<path d="M1240 659.937H158C158 659.937 442.5 470 965.5 484.5C1095.45 488.103 1240 521.901 1240 521.901V659.937Z" fill="#0D0C0E"/>
</g>
<defs>
<filter id="filter0_df_532_6688" x="955" y="120" width="40" height="40" filterUnits="userSpaceOnUse" color-interpolation-filters="sRGB">
<feFlood flood-opacity="0" result="BackgroundImageFix"/>
<feColorMatrix in="SourceAlpha" type="matrix" values="0 0 0 0 0 0 0 0 0 0 0 0 0 0 0 0 0 0 127 0" result="hardAlpha"/>
<feOffset/>
<feGaussianBlur stdDeviation="8"/>
<feComposite in2="hardAlpha" operator="out"/>
<feColorMatrix type="matrix" values="0 0 0 0 1 0 0 0 0 1 0 0 0 0 1 0 0 0 1 0"/>
<feBlend mode="normal" in2="BackgroundImageFix" result="effect1_dropShadow_532_6688"/>
<feBlend mode="normal" in="SourceGraphic" in2="effect1_dropShadow_532_6688" result="shape"/>
<feGaussianBlur stdDeviation="0.5" result="effect2_foregroundBlur_532_6688"/>
</filter>
<filter id="filter1_df_532_6688" x="576" y="415" width="40" height="40" filterUnits="userSpaceOnUse" color-interpolation-filters="sRGB">
<feFlood flood-opacity="0" result="BackgroundImageFix"/>
<feColorMatrix in="SourceAlpha" type="matrix" values="0 0 0 0 0 0 0 0 0 0 0 0 0 0 0 0 0 0 127 0" result="hardAlpha"/>
<feOffset/>
<feGaussianBlur stdDeviation="8"/>
<feComposite in2="hardAlpha" operator="out"/>
<feColorMatrix type="matrix" values="0 0 0 0 1 0 0 0 0 1 0 0 0 0 1 0 0 0 1 0"/>
<feBlend mode="normal" in2="BackgroundImageFix" result="effect1_dropShadow_532_6688"/>
<feBlend mode="normal" in="SourceGraphic" in2="effect1_dropShadow_532_6688" result="shape"/>
<feGaussianBlur stdDeviation="0.5" result="effect2_foregroundBlur_532_6688"/>
</filter>
<filter id="filter2_df_532_6688" x="295.576" y="142.621" width="39.955" height="39.9551" filterUnits="userSpaceOnUse" color-interpolation-filters="sRGB">
<feFlood flood-opacity="0" result="BackgroundImageFix"/>
<feColorMatrix in="SourceAlpha" type="matrix" values="0 0 0 0 0 0 0 0 0 0 0 0 0 0 0 0 0 0 127 0" result="hardAlpha"/>
<feOffset/>
<feGaussianBlur stdDeviation="8"/>
<feComposite in2="hardAlpha" operator="out"/>
<feColorMatrix type="matrix" values="0 0 0 0 1 0 0 0 0 1 0 0 0 0 1 0 0 0 1 0"/>
<feBlend mode="normal" in2="BackgroundImageFix" result="effect1_dropShadow_532_6688"/>
<feBlend mode="normal" in="SourceGraphic" in2="effect1_dropShadow_532_6688" result="shape"/>
<feGaussianBlur stdDeviation="0.5" result="effect2_foregroundBlur_532_6688"/>
</filter>
<filter id="filter3_df_532_6688" x="169.176" y="514.464" width="38.7126" height="38.7124" filterUnits="userSpaceOnUse" color-interpolation-filters="sRGB">
<feFlood flood-opacity="0" result="BackgroundImageFix"/>
<feColorMatrix in="SourceAlpha" type="matrix" values="0 0 0 0 0 0 0 0 0 0 0 0 0 0 0 0 0 0 127 0" result="hardAlpha"/>
<feOffset/>
<feGaussianBlur stdDeviation="8"/>
<feComposite in2="hardAlpha" operator="out"/>
<feColorMatrix type="matrix" values="0 0 0 0 1 0 0 0 0 1 0 0 0 0 1 0 0 0 1 0"/>
<feBlend mode="normal" in2="BackgroundImageFix" result="effect1_dropShadow_532_6688"/>
<feBlend mode="normal" in="SourceGraphic" in2="effect1_dropShadow_532_6688" result="shape"/>
<feGaussianBlur stdDeviation="0.5" result="effect2_foregroundBlur_532_6688"/>
</filter>
<filter id="filter4_df_532_6688" x="842.25" y="434.508" width="38.2577" height="38.2576" filterUnits="userSpaceOnUse" color-interpolation-filters="sRGB">
<feFlood flood-opacity="0" result="BackgroundImageFix"/>
<feColorMatrix in="SourceAlpha" type="matrix" values="0 0 0 0 0 0 0 0 0 0 0 0 0 0 0 0 0 0 127 0" result="hardAlpha"/>
<feOffset/>
<feGaussianBlur stdDeviation="8"/>
<feComposite in2="hardAlpha" operator="out"/>
<feColorMatrix type="matrix" values="0 0 0 0 1 0 0 0 0 1 0 0 0 0 1 0 0 0 1 0"/>
<feBlend mode="normal" in2="BackgroundImageFix" result="effect1_dropShadow_532_6688"/>
<feBlend mode="normal" in="SourceGraphic" in2="effect1_dropShadow_532_6688" result="shape"/>
<feGaussianBlur stdDeviation="0.5" result="effect2_foregroundBlur_532_6688"/>
</filter>
<filter id="filter5_df_532_6688" x="422.902" y="569.421" width="39.0375" height="39.0374" filterUnits="userSpaceOnUse" color-interpolation-filters="sRGB">
<feFlood flood-opacity="0" result="BackgroundImageFix"/>
<feColorMatrix in="SourceAlpha" type="matrix" values="0 0 0 0 0 0 0 0 0 0 0 0 0 0 0 0 0 0 127 0" result="hardAlpha"/>
<feOffset/>
<feGaussianBlur stdDeviation="8"/>
<feComposite in2="hardAlpha" operator="out"/>
<feColorMatrix type="matrix" values="0 0 0 0 1 0 0 0 0 1 0 0 0 0 1 0 0 0 1 0"/>
<feBlend mode="normal" in2="BackgroundImageFix" result="effect1_dropShadow_532_6688"/>
<feBlend mode="normal" in="SourceGraphic" in2="effect1_dropShadow_532_6688" result="shape"/>
<feGaussianBlur stdDeviation="0.5" result="effect2_foregroundBlur_532_6688"/>
</filter>
<filter id="filter6_df_532_6688" x="794.062" y="163.351" width="39.2889" height="39.2891" filterUnits="userSpaceOnUse" color-interpolation-filters="sRGB">
<feFlood flood-opacity="0" result="BackgroundImageFix"/>
<feColorMatrix in="SourceAlpha" type="matrix" values="0 0 0 0 0 0 0 0 0 0 0 0 0 0 0 0 0 0 127 0" result="hardAlpha"/>
<feOffset/>
<feGaussianBlur stdDeviation="8"/>
<feComposite in2="hardAlpha" operator="out"/>
<feColorMatrix type="matrix" values="0 0 0 0 1 0 0 0 0 1 0 0 0 0 1 0 0 0 1 0"/>
<feBlend mode="normal" in2="BackgroundImageFix" result="effect1_dropShadow_532_6688"/>
<feBlend mode="normal" in="SourceGraphic" in2="effect1_dropShadow_532_6688" result="shape"/>
<feGaussianBlur stdDeviation="0.5" result="effect2_foregroundBlur_532_6688"/>
</filter>
<filter id="filter7_d_532_6688" x="696.183" y="-27.0859" width="38.4514" height="38.4514" filterUnits="userSpaceOnUse" color-interpolation-filters="sRGB">
<feFlood flood-opacity="0" result="BackgroundImageFix"/>
<feColorMatrix in="SourceAlpha" type="matrix" values="0 0 0 0 0 0 0 0 0 0 0 0 0 0 0 0 0 0 127 0" result="hardAlpha"/>
<feOffset/>
<feGaussianBlur stdDeviation="8"/>
<feComposite in2="hardAlpha" operator="out"/>
<feColorMatrix type="matrix" values="0 0 0 0 1 0 0 0 0 1 0 0 0 0 1 0 0 0 1 0"/>
<feBlend mode="normal" in2="BackgroundImageFix" result="effect1_dropShadow_532_6688"/>
<feBlend mode="normal" in="SourceGraphic" in2="effect1_dropShadow_532_6688" result="shape"/>
</filter>
<filter id="filter8_df_532_6688" x="746.199" y="554.154" width="39.9097" height="39.9097" filterUnits="userSpaceOnUse" color-interpolation-filters="sRGB">
<feFlood flood-opacity="0" result="BackgroundImageFix"/>
<feColorMatrix in="SourceAlpha" type="matrix" values="0 0 0 0 0 0 0 0 0 0 0 0 0 0 0 0 0 0 127 0" result="hardAlpha"/>
<feOffset/>
<feGaussianBlur stdDeviation="8"/>
<feComposite in2="hardAlpha" operator="out"/>
<feColorMatrix type="matrix" values="0 0 0 0 1 0 0 0 0 1 0 0 0 0 1 0 0 0 1 0"/>
<feBlend mode="normal" in2="BackgroundImageFix" result="effect1_dropShadow_532_6688"/>
<feBlend mode="normal" in="SourceGraphic" in2="effect1_dropShadow_532_6688" result="shape"/>
<feGaussianBlur stdDeviation="0.5" result="effect2_foregroundBlur_532_6688"/>
</filter>
<filter id="filter9_df_532_6688" x="604.825" y="249.353" width="39.5283" height="39.5283" filterUnits="userSpaceOnUse" color-interpolation-filters="sRGB">
<feFlood flood-opacity="0" result="BackgroundImageFix"/>
<feColorMatrix in="SourceAlpha" type="matrix" values="0 0 0 0 0 0 0 0 0 0 0 0 0 0 0 0 0 0 127 0" result="hardAlpha"/>
<feOffset/>
<feGaussianBlur stdDeviation="8"/>
<feComposite in2="hardAlpha" operator="out"/>
<feColorMatrix type="matrix" values="0 0 0 0 1 0 0 0 0 1 0 0 0 0 1 0 0 0 1 0"/>
<feBlend mode="normal" in2="BackgroundImageFix" result="effect1_dropShadow_532_6688"/>
<feBlend mode="normal" in="SourceGraphic" in2="effect1_dropShadow_532_6688" result="shape"/>
<feGaussianBlur stdDeviation="0.5" result="effect2_foregroundBlur_532_6688"/>
</filter>
<filter id="filter10_df_532_6688" x="1069.76" y="464.24" width="39.1835" height="39.1836" filterUnits="userSpaceOnUse" color-interpolation-filters="sRGB">
<feFlood flood-opacity="0" result="BackgroundImageFix"/>
<feColorMatrix in="SourceAlpha" type="matrix" values="0 0 0 0 0 0 0 0 0 0 0 0 0 0 0 0 0 0 127 0" result="hardAlpha"/>
<feOffset/>
<feGaussianBlur stdDeviation="8"/>
<feComposite in2="hardAlpha" operator="out"/>
<feColorMatrix type="matrix" values="0 0 0 0 1 0 0 0 0 1 0 0 0 0 1 0 0 0 1 0"/>
<feBlend mode="normal" in2="BackgroundImageFix" result="effect1_dropShadow_532_6688"/>
<feBlend mode="normal" in="SourceGraphic" in2="effect1_dropShadow_532_6688" result="shape"/>
<feGaussianBlur stdDeviation="0.5" result="effect2_foregroundBlur_532_6688"/>
</filter>
<filter id="filter11_df_532_6688" x="379.061" y="19.3899" width="39.2745" height="39.2747" filterUnits="userSpaceOnUse" color-interpolation-filters="sRGB">
<feFlood flood-opacity="0" result="BackgroundImageFix"/>
<feColorMatrix in="SourceAlpha" type="matrix" values="0 0 0 0 0 0 0 0 0 0 0 0 0 0 0 0 0 0 127 0" result="hardAlpha"/>
<feOffset/>
<feGaussianBlur stdDeviation="8"/>
<feComposite in2="hardAlpha" operator="out"/>
<feColorMatrix type="matrix" values="0 0 0 0 1 0 0 0 0 1 0 0 0 0 1 0 0 0 1 0"/>
<feBlend mode="normal" in2="BackgroundImageFix" result="effect1_dropShadow_532_6688"/>
<feBlend mode="normal" in="SourceGraphic" in2="effect1_dropShadow_532_6688" result="shape"/>
<feGaussianBlur stdDeviation="0.5" result="effect2_foregroundBlur_532_6688"/>
</filter>
<filter id="filter12_f_532_6688" x="688" y="132.839" width="560" height="209.161" filterUnits="userSpaceOnUse" color-interpolation-filters="sRGB">
<feFlood flood-opacity="0" result="BackgroundImageFix"/>
<feBlend mode="normal" in="SourceGraphic" in2="BackgroundImageFix" result="shape"/>
<feGaussianBlur stdDeviation="40" result="effect1_foregroundBlur_532_6688"/>
</filter>
<filter id="filter13_f_532_6688" x="852" y="200.935" width="232" height="72.9678" filterUnits="userSpaceOnUse" color-interpolation-filters="sRGB">
<feFlood flood-opacity="0" result="BackgroundImageFix"/>
<feBlend mode="normal" in="SourceGraphic" in2="BackgroundImageFix" result="shape"/>
<feGaussianBlur stdDeviation="8" result="effect1_foregroundBlur_532_6688"/>
</filter>
<filter id="filter14_f_532_6688" x="752" y="196.839" width="432" height="81.1614" filterUnits="userSpaceOnUse" color-interpolation-filters="sRGB">
<feFlood flood-opacity="0" result="BackgroundImageFix"/>
<feBlend mode="normal" in="SourceGraphic" in2="BackgroundImageFix" result="shape"/>
<feGaussianBlur stdDeviation="8" result="effect1_foregroundBlur_532_6688"/>
</filter>
<filter id="filter15_f_532_6688" x="889.5" y="209.129" width="157" height="57.6047" filterUnits="userSpaceOnUse" color-interpolation-filters="sRGB">
<feFlood flood-opacity="0" result="BackgroundImageFix"/>
<feBlend mode="normal" in="SourceGraphic" in2="BackgroundImageFix" result="shape"/>
<feGaussianBlur stdDeviation="8" result="effect1_foregroundBlur_532_6688"/>
</filter>
<filter id="filter16_f_532_6688" x="608" y="52.8389" width="720" height="369.161" filterUnits="userSpaceOnUse" color-interpolation-filters="sRGB">
<feFlood flood-opacity="0" result="BackgroundImageFix"/>
<feBlend mode="normal" in="SourceGraphic" in2="BackgroundImageFix" result="shape"/>
<feGaussianBlur stdDeviation="80" result="effect1_foregroundBlur_532_6688"/>
</filter>
<filter id="filter17_f_532_6688" x="852" y="200.935" width="232" height="72.9678" filterUnits="userSpaceOnUse" color-interpolation-filters="sRGB">
<feFlood flood-opacity="0" result="BackgroundImageFix"/>
<feBlend mode="normal" in="SourceGraphic" in2="BackgroundImageFix" result="shape"/>
<feGaussianBlur stdDeviation="8" result="effect1_foregroundBlur_532_6688"/>
</filter>
<filter id="filter18_f_532_6688" x="752" y="196.839" width="432" height="81.1614" filterUnits="userSpaceOnUse" color-interpolation-filters="sRGB">
<feFlood flood-opacity="0" result="BackgroundImageFix"/>
<feBlend mode="normal" in="SourceGraphic" in2="BackgroundImageFix" result="shape"/>
<feGaussianBlur stdDeviation="8" result="effect1_foregroundBlur_532_6688"/>
</filter>
<filter id="filter19_f_532_6688" x="889.5" y="209.129" width="157" height="57.6047" filterUnits="userSpaceOnUse" color-interpolation-filters="sRGB">
<feFlood flood-opacity="0" result="BackgroundImageFix"/>
<feBlend mode="normal" in="SourceGraphic" in2="BackgroundImageFix" result="shape"/>
<feGaussianBlur stdDeviation="8" result="effect1_foregroundBlur_532_6688"/>
</filter>
<filter id="filter20_f_532_6688" x="688" y="132.839" width="560" height="209.161" filterUnits="userSpaceOnUse" color-interpolation-filters="sRGB">
<feFlood flood-opacity="0" result="BackgroundImageFix"/>
<feBlend mode="normal" in="SourceGraphic" in2="BackgroundImageFix" result="shape"/>
<feGaussianBlur stdDeviation="40" result="effect1_foregroundBlur_532_6688"/>
</filter>
<filter id="filter21_f_532_6688" x="852" y="200.935" width="232" height="72.9678" filterUnits="userSpaceOnUse" color-interpolation-filters="sRGB">
<feFlood flood-opacity="0" result="BackgroundImageFix"/>
<feBlend mode="normal" in="SourceGraphic" in2="BackgroundImageFix" result="shape"/>
<feGaussianBlur stdDeviation="8" result="effect1_foregroundBlur_532_6688"/>
</filter>
<filter id="filter22_f_532_6688" x="752" y="196.839" width="432" height="81.1614" filterUnits="userSpaceOnUse" color-interpolation-filters="sRGB">
<feFlood flood-opacity="0" result="BackgroundImageFix"/>
<feBlend mode="normal" in="SourceGraphic" in2="BackgroundImageFix" result="shape"/>
<feGaussianBlur stdDeviation="8" result="effect1_foregroundBlur_532_6688"/>
</filter>
<filter id="filter23_f_532_6688" x="889.5" y="209.129" width="157" height="57.6047" filterUnits="userSpaceOnUse" color-interpolation-filters="sRGB">
<feFlood flood-opacity="0" result="BackgroundImageFix"/>
<feBlend mode="normal" in="SourceGraphic" in2="BackgroundImageFix" result="shape"/>
<feGaussianBlur stdDeviation="8" result="effect1_foregroundBlur_532_6688"/>
</filter>
<filter id="filter24_f_532_6688" x="608" y="52.8389" width="720" height="369.161" filterUnits="userSpaceOnUse" color-interpolation-filters="sRGB">
<feFlood flood-opacity="0" result="BackgroundImageFix"/>
<feBlend mode="normal" in="SourceGraphic" in2="BackgroundImageFix" result="shape"/>
<feGaussianBlur stdDeviation="80" result="effect1_foregroundBlur_532_6688"/>
</filter>
<filter id="filter25_f_532_6688" x="852" y="200.935" width="232" height="72.9678" filterUnits="userSpaceOnUse" color-interpolation-filters="sRGB">
<feFlood flood-opacity="0" result="BackgroundImageFix"/>
<feBlend mode="normal" in="SourceGraphic" in2="BackgroundImageFix" result="shape"/>
<feGaussianBlur stdDeviation="8" result="effect1_foregroundBlur_532_6688"/>
</filter>
<filter id="filter26_f_532_6688" x="752" y="196.839" width="432" height="81.1614" filterUnits="userSpaceOnUse" color-interpolation-filters="sRGB">
<feFlood flood-opacity="0" result="BackgroundImageFix"/>
<feBlend mode="normal" in="SourceGraphic" in2="BackgroundImageFix" result="shape"/>
<feGaussianBlur stdDeviation="8" result="effect1_foregroundBlur_532_6688"/>
</filter>
<filter id="filter27_f_532_6688" x="889.5" y="209.129" width="157" height="57.6047" filterUnits="userSpaceOnUse" color-interpolation-filters="sRGB">
<feFlood flood-opacity="0" result="BackgroundImageFix"/>
<feBlend mode="normal" in="SourceGraphic" in2="BackgroundImageFix" result="shape"/>
<feGaussianBlur stdDeviation="8" result="effect1_foregroundBlur_532_6688"/>
</filter>
<filter id="filter28_f_532_6688" x="868" y="-72" width="200" height="668" filterUnits="userSpaceOnUse" color-interpolation-filters="sRGB">
<feFlood flood-opacity="0" result="BackgroundImageFix"/>
<feBlend mode="normal" in="SourceGraphic" in2="BackgroundImageFix" result="shape"/>
<feGaussianBlur stdDeviation="40" result="effect1_foregroundBlur_532_6688"/>
</filter>
<filter id="filter29_f_532_6688" x="935.333" y="119" width="65.3333" height="286" filterUnits="userSpaceOnUse" color-interpolation-filters="sRGB">
<feFlood flood-opacity="0" result="BackgroundImageFix"/>
<feBlend mode="normal" in="SourceGraphic" in2="BackgroundImageFix" result="shape"/>
<feGaussianBlur stdDeviation="8" result="effect1_foregroundBlur_532_6688"/>
</filter>
<filter id="filter30_f_532_6688" x="932" y="-8" width="72" height="540" filterUnits="userSpaceOnUse" color-interpolation-filters="sRGB">
<feFlood flood-opacity="0" result="BackgroundImageFix"/>
<feBlend mode="normal" in="SourceGraphic" in2="BackgroundImageFix" result="shape"/>
<feGaussianBlur stdDeviation="8" result="effect1_foregroundBlur_532_6688"/>
</filter>
<filter id="filter31_f_532_6688" x="942" y="166.625" width="52.8333" height="190.75" filterUnits="userSpaceOnUse" color-interpolation-filters="sRGB">
<feFlood flood-opacity="0" result="BackgroundImageFix"/>
<feBlend mode="normal" in="SourceGraphic" in2="BackgroundImageFix" result="shape"/>
<feGaussianBlur stdDeviation="8" result="effect1_foregroundBlur_532_6688"/>
</filter>
<filter id="filter32_f_532_6688" x="788" y="-152" width="360" height="828" filterUnits="userSpaceOnUse" color-interpolation-filters="sRGB">
<feFlood flood-opacity="0" result="BackgroundImageFix"/>
<feBlend mode="normal" in="SourceGraphic" in2="BackgroundImageFix" result="shape"/>
<feGaussianBlur stdDeviation="80" result="effect1_foregroundBlur_532_6688"/>
</filter>
<filter id="filter33_f_532_6688" x="935.333" y="119" width="65.3333" height="286" filterUnits="userSpaceOnUse" color-interpolation-filters="sRGB">
<feFlood flood-opacity="0" result="BackgroundImageFix"/>
<feBlend mode="normal" in="SourceGraphic" in2="BackgroundImageFix" result="shape"/>
<feGaussianBlur stdDeviation="8" result="effect1_foregroundBlur_532_6688"/>
</filter>
<filter id="filter34_f_532_6688" x="932" y="-8" width="72" height="540" filterUnits="userSpaceOnUse" color-interpolation-filters="sRGB">
<feFlood flood-opacity="0" result="BackgroundImageFix"/>
<feBlend mode="normal" in="SourceGraphic" in2="BackgroundImageFix" result="shape"/>
<feGaussianBlur stdDeviation="8" result="effect1_foregroundBlur_532_6688"/>
</filter>
<filter id="filter35_f_532_6688" x="942" y="166.625" width="52.8333" height="190.75" filterUnits="userSpaceOnUse" color-interpolation-filters="sRGB">
<feFlood flood-opacity="0" result="BackgroundImageFix"/>
<feBlend mode="normal" in="SourceGraphic" in2="BackgroundImageFix" result="shape"/>
<feGaussianBlur stdDeviation="8" result="effect1_foregroundBlur_532_6688"/>
</filter>
<filter id="filter36_f_532_6688" x="868" y="-72" width="200" height="668" filterUnits="userSpaceOnUse" color-interpolation-filters="sRGB">
<feFlood flood-opacity="0" result="BackgroundImageFix"/>
<feBlend mode="normal" in="SourceGraphic" in2="BackgroundImageFix" result="shape"/>
<feGaussianBlur stdDeviation="40" result="effect1_foregroundBlur_532_6688"/>
</filter>
<filter id="filter37_f_532_6688" x="935.333" y="119" width="65.3333" height="286" filterUnits="userSpaceOnUse" color-interpolation-filters="sRGB">
<feFlood flood-opacity="0" result="BackgroundImageFix"/>
<feBlend mode="normal" in="SourceGraphic" in2="BackgroundImageFix" result="shape"/>
<feGaussianBlur stdDeviation="8" result="effect1_foregroundBlur_532_6688"/>
</filter>
<filter id="filter38_f_532_6688" x="932" y="-8" width="72" height="540" filterUnits="userSpaceOnUse" color-interpolation-filters="sRGB">
<feFlood flood-opacity="0" result="BackgroundImageFix"/>
<feBlend mode="normal" in="SourceGraphic" in2="BackgroundImageFix" result="shape"/>
<feGaussianBlur stdDeviation="8" result="effect1_foregroundBlur_532_6688"/>
</filter>
<filter id="filter39_f_532_6688" x="942" y="166.625" width="52.8333" height="190.75" filterUnits="userSpaceOnUse" color-interpolation-filters="sRGB">
<feFlood flood-opacity="0" result="BackgroundImageFix"/>
<feBlend mode="normal" in="SourceGraphic" in2="BackgroundImageFix" result="shape"/>
<feGaussianBlur stdDeviation="8" result="effect1_foregroundBlur_532_6688"/>
</filter>
<filter id="filter40_f_532_6688" x="788" y="-152" width="360" height="828" filterUnits="userSpaceOnUse" color-interpolation-filters="sRGB">
<feFlood flood-opacity="0" result="BackgroundImageFix"/>
<feBlend mode="normal" in="SourceGraphic" in2="BackgroundImageFix" result="shape"/>
<feGaussianBlur stdDeviation="80" result="effect1_foregroundBlur_532_6688"/>
</filter>
<filter id="filter41_f_532_6688" x="935.333" y="119" width="65.3333" height="286" filterUnits="userSpaceOnUse" color-interpolation-filters="sRGB">
<feFlood flood-opacity="0" result="BackgroundImageFix"/>
<feBlend mode="normal" in="SourceGraphic" in2="BackgroundImageFix" result="shape"/>
<feGaussianBlur stdDeviation="8" result="effect1_foregroundBlur_532_6688"/>
</filter>
<filter id="filter42_f_532_6688" x="932" y="-8" width="72" height="540" filterUnits="userSpaceOnUse" color-interpolation-filters="sRGB">
<feFlood flood-opacity="0" result="BackgroundImageFix"/>
<feBlend mode="normal" in="SourceGraphic" in2="BackgroundImageFix" result="shape"/>
<feGaussianBlur stdDeviation="8" result="effect1_foregroundBlur_532_6688"/>
</filter>
<filter id="filter43_f_532_6688" x="942" y="166.625" width="52.8333" height="190.75" filterUnits="userSpaceOnUse" color-interpolation-filters="sRGB">
<feFlood flood-opacity="0" result="BackgroundImageFix"/>
<feBlend mode="normal" in="SourceGraphic" in2="BackgroundImageFix" result="shape"/>
<feGaussianBlur stdDeviation="8" result="effect1_foregroundBlur_532_6688"/>
</filter>
<radialGradient id="paint0_radial_532_6688" cx="0" cy="0" r="1" gradientUnits="userSpaceOnUse" gradientTransform="translate(937.32 277.406) rotate(144.678) scale(661.731 610.036)">
<stop stop-color="#CC7919"/>
<stop offset="0.182292" stop-color="#76460F"/>
<stop offset="0.479167" stop-color="#493109"/>
<stop offset="0.75" stop-color="#241904" stop-opacity="0.8"/>
<stop offset="1" stop-color="#0D0C0E" stop-opacity="0"/>
</radialGradient>
<clipPath id="clip0_532_6688">
<rect width="1240" height="660" fill="white"/>
</clipPath>
<clipPath id="clip1_532_6688">
<rect width="1240" height="660" fill="white" transform="matrix(-1 0 0 1 1240 0)"/>
</clipPath>
</defs>
</svg>
