<svg width="24" height="24" viewBox="0 0 24 24" fill="none" xmlns="http://www.w3.org/2000/svg">
<path d="M12.0022 6.87361C9.16453 6.87361 6.87563 9.16251 6.87563 12.0002C6.87563 14.8379 9.16453 17.1268 12.0022 17.1268C14.8399 17.1268 17.1288 14.8379 17.1288 12.0002C17.1288 9.16251 14.8399 6.87361 12.0022 6.87361ZM12.0022 15.3332C10.1684 15.3332 8.66927 13.8385 8.66927 12.0002C8.66927 10.162 10.164 8.66725 12.0022 8.66725C13.8405 8.66725 15.3352 10.162 15.3352 12.0002C15.3352 13.8385 13.836 15.3332 12.0022 15.3332V15.3332ZM18.5343 6.6639C18.5343 7.32871 17.9989 7.85966 17.3385 7.85966C16.6737 7.85966 16.1428 7.32425 16.1428 6.6639C16.1428 6.00356 16.6782 5.46814 17.3385 5.46814C17.9989 5.46814 18.5343 6.00356 18.5343 6.6639ZM21.9297 7.87751C21.8539 6.27573 21.488 4.85688 20.3146 3.68788C19.1456 2.51889 17.7267 2.15303 16.1249 2.07271C14.4741 1.97902 9.52593 1.97902 7.87507 2.07271C6.27775 2.14857 4.8589 2.51443 3.68544 3.68342C2.51199 4.85241 2.15059 6.27126 2.07027 7.87305C1.97658 9.52391 1.97658 14.472 2.07027 16.1229C2.14612 17.7247 2.51199 19.1435 3.68544 20.3125C4.8589 21.4815 6.27329 21.8474 7.87507 21.9277C9.52593 22.0214 14.4741 22.0214 16.1249 21.9277C17.7267 21.8519 19.1456 21.486 20.3146 20.3125C21.4835 19.1435 21.8494 17.7247 21.9297 16.1229C22.0234 14.472 22.0234 9.52838 21.9297 7.87751V7.87751ZM19.797 17.8942C19.449 18.7688 18.7752 19.4425 17.8963 19.795C16.58 20.317 13.4568 20.1965 12.0022 20.1965C10.5477 20.1965 7.41997 20.3125 6.1082 19.795C5.23369 19.4469 4.55996 18.7732 4.20747 17.8942C3.68544 16.578 3.80591 13.4548 3.80591 12.0002C3.80591 10.5457 3.68991 7.41795 4.20747 6.10618C4.55549 5.23167 5.22922 4.55794 6.1082 4.20545C7.42443 3.68342 10.5477 3.80389 12.0022 3.80389C13.4568 3.80389 16.5845 3.68788 17.8963 4.20545C18.7708 4.55347 19.4445 5.2272 19.797 6.10618C20.319 7.42241 20.1985 10.5457 20.1985 12.0002C20.1985 13.4548 20.319 16.5825 19.797 17.8942Z" fill="#CF3F91"/>
</svg>
