<svg width="24" height="24" viewBox="0 0 24 24" fill="none" xmlns="http://www.w3.org/2000/svg">
<path d="M19.9442 7.93723C19.9569 8.11441 19.9569 8.29163 19.9569 8.46881C19.9569 13.873 15.8326 20.0999 8.29444 20.0999C5.97209 20.0999 3.81473 19.4291 2 18.2648C2.32996 18.3027 2.64719 18.3154 2.98985 18.3154C4.90607 18.3154 6.67006 17.6699 8.0787 16.5688C6.27666 16.5308 4.7665 15.3538 4.24618 13.7338C4.50001 13.7718 4.7538 13.7971 5.02032 13.7971C5.38833 13.7971 5.75638 13.7464 6.099 13.6579C4.22083 13.2782 2.81215 11.6329 2.81215 9.64583V9.59523C3.35782 9.89898 3.99239 10.0888 4.66493 10.1141C3.56087 9.38002 2.83754 8.12707 2.83754 6.70956C2.83754 5.9502 3.04055 5.25411 3.3959 4.6466C5.41369 7.12723 8.44671 8.7472 11.8477 8.92442C11.7843 8.62066 11.7462 8.30429 11.7462 7.98788C11.7462 5.73504 13.5736 3.8999 15.8452 3.8999C17.0254 3.8999 18.0914 4.39349 18.8401 5.19084C19.7665 5.01366 20.6548 4.67192 21.4416 4.20365C21.137 5.15289 20.4898 5.95024 19.6396 6.45645C20.4645 6.3679 21.264 6.14004 22 5.82367C21.4417 6.63363 20.7437 7.35501 19.9442 7.93723V7.93723Z" fill="#1C96E8"/>
</svg>
