<svg width="80" height="28" viewBox="0 0 80 28" fill="none" xmlns="http://www.w3.org/2000/svg">
<path d="M5.41619 27.1C4.43143 27.1 3.52242 26.9234 2.68916 26.5701C1.88115 26.2169 1.22464 25.7374 0.719633 25.1318C0.239878 24.5263 0 23.8324 0 23.0501C0 22.2427 0.214628 21.5236 0.643883 20.8927C1.09839 20.2619 1.7549 19.9339 2.61341 19.9087C3.57292 19.8582 4.25467 20.0979 4.65868 20.6278C5.08793 21.1324 5.31519 21.7128 5.34044 22.3689C5.36569 22.5707 5.34044 22.7978 5.26469 23.0501C5.21419 23.3025 5.12581 23.5422 4.99956 23.7693C5.21363 24.1971 5.71452 24.3749 6.1737 24.3749C6.70395 24.3749 7.10796 24.1478 7.38571 23.6936C7.68872 23.2142 7.84022 22.4446 7.84022 21.3848V6.20726V2.87654L5.15106 2.91439V0H16.0213V2.49805C15.4658 2.52328 13.3322 2.49805 13.3322 5.08125V16.8807C13.3322 20.5142 13.0552 23.2891 11.784 24.9828C10.5128 26.6766 8.39415 27.1 5.41619 27.1Z" fill="#DC89A2"/>
<path d="M26.988 27.1C25.4379 27.1 24.185 26.8032 23.2291 26.2096C22.2991 25.616 21.6144 24.6868 21.1753 23.4222C20.7619 22.1575 20.5552 20.5315 20.5552 18.5442V14.092C20.5552 13.6274 20.5682 13.0983 20.594 12.5047C20.6198 11.8853 20.6457 11.2917 20.6715 10.7239C20.2581 10.7497 19.7673 10.7755 19.1989 10.8013C18.6564 10.8013 18.2431 10.8142 17.9589 10.84V7.89773H18.3464C19.9481 7.89773 21.214 7.76868 22.1441 7.51058C23.0741 7.25249 23.6683 6.99439 23.9266 6.7363H26.058V18.5829C26.058 20.2605 26.2775 21.5123 26.7167 22.3382C27.1559 23.1383 27.8534 23.5383 28.8093 23.5383C29.481 23.5383 30.1527 23.3576 30.8244 22.9963C31.5219 22.6092 32.0903 22.1704 32.5294 21.68V14.092C32.5294 13.6274 32.5424 13.0983 32.5682 12.5047C32.594 11.8853 32.6328 11.2917 32.6845 10.7239C32.2711 10.7497 31.7803 10.7755 31.2119 10.8013C30.6694 10.8013 30.256 10.8142 29.9719 10.84V7.89773H30.9019C32.1161 7.89773 33.1882 7.76868 34.1183 7.51058C35.0483 7.22668 35.6425 6.96858 35.9008 6.7363H38.0322V20.2476C38.0322 20.6089 38.0192 21.1251 37.9934 21.7962C37.9676 22.4414 37.9288 23.0608 37.8772 23.6544C38.2905 23.6028 38.7426 23.577 39.2335 23.577C39.7501 23.5512 40.1377 23.5383 40.396 23.5383V26.4806H33.0332C33.0074 26.1451 32.9686 25.8095 32.917 25.474C32.8911 25.1385 32.8524 24.803 32.8007 24.4674C31.9998 25.1385 31.1344 25.745 30.2044 26.287C29.3002 26.829 28.228 27.1 26.988 27.1Z" fill="#FAEBEF"/>
<path d="M53.2615 27.1C52.1506 27.1 51.0656 26.9581 50.0064 26.6741C48.9472 26.3902 48.1205 26.0289 47.5263 25.5901L47.6038 26.7516H44.6587L44.5037 20.0927H47.0225C47.1 20.867 47.41 21.5768 47.9525 22.222C48.4951 22.8672 49.2055 23.3834 50.0839 23.7706C50.9622 24.1319 51.9439 24.3126 53.029 24.3126C53.4682 24.3126 53.8815 24.2481 54.269 24.119C54.6824 23.99 55.0182 23.7835 55.2766 23.4996C55.5607 23.1899 55.7028 22.8156 55.7028 22.3769C55.7028 21.8865 55.522 21.4864 55.1603 21.1767C54.8245 20.867 54.3207 20.5702 53.649 20.2863C53.0031 20.0024 52.1894 19.6798 51.2077 19.3184C50.4068 19.0087 49.593 18.6861 48.7663 18.3506C47.9655 18.0151 47.2163 17.615 46.5187 17.1504C45.847 16.6601 45.3045 16.0664 44.8912 15.3696C44.4778 14.6469 44.2711 13.7694 44.2711 12.737C44.2711 11.9885 44.4132 11.253 44.6974 10.5303C44.9816 9.78182 45.4208 9.11077 46.015 8.51715C46.6092 7.89772 47.3583 7.40734 48.2626 7.04601C49.1926 6.68467 50.2905 6.50401 51.5564 6.50401C52.254 6.50401 53.0419 6.62015 53.9203 6.85243C54.8245 7.05891 55.5866 7.38153 56.2066 7.82029V6.69758H59.1517V13.55H56.6329C56.4779 12.6467 56.1549 11.8724 55.6641 11.2271C55.1991 10.5819 54.592 10.0915 53.8428 9.75601C53.0936 9.39467 52.254 9.21401 51.3239 9.21401C50.6781 9.21401 50.0839 9.36886 49.5413 9.67858C49.0247 9.98829 48.7663 10.5174 48.7663 11.2659C48.7663 11.8595 48.973 12.337 49.3863 12.6983C49.7997 13.0338 50.368 13.3177 51.0914 13.55C51.8148 13.7823 52.6156 14.0533 53.494 14.363C54.8115 14.8018 55.9741 15.318 56.9816 15.9116C58.015 16.5052 58.8288 17.2279 59.423 18.0796C60.0172 18.9055 60.3143 19.925 60.3143 21.138C60.3143 22.4801 59.9784 23.5899 59.3067 24.4674C58.635 25.345 57.7567 26.0031 56.6716 26.4419C55.6124 26.8806 54.4757 27.1 53.2615 27.1Z" fill="#FAEBEF"/>
<path d="M72.7922 27.1C72.0172 27.1 71.268 27.0097 70.5446 26.829C69.8471 26.6483 69.2013 26.3128 68.6071 25.8224C68.0387 25.3062 67.5866 24.5578 67.2508 23.577C66.9149 22.5962 66.747 21.2929 66.747 19.6669L66.8245 10.3367H64.1894V7.12343C64.9903 7.09762 65.7653 6.82662 66.5145 6.31043C67.2637 5.79424 67.8966 5.12319 68.4133 4.29729C68.9558 3.47138 69.3175 2.60676 69.4983 1.70343H72.366L72.3272 7.12343H77.2486V10.1044L72.3272 10.2206L72.2885 19.7443C72.2885 20.3379 72.3401 20.9315 72.4435 21.5251C72.5726 22.093 72.8051 22.5704 73.141 22.9576C73.4768 23.3189 73.9677 23.4996 74.6135 23.4996C74.9752 23.4996 75.4661 23.3705 76.0861 23.1124C76.732 22.8543 77.4166 22.2091 78.1399 21.1767L80 22.9189C79.3025 23.9512 78.5791 24.7513 77.8299 25.3191C77.0807 25.887 76.3574 26.2999 75.6598 26.558C74.9881 26.8161 74.3939 26.971 73.8773 27.0226C73.3606 27.0742 72.9989 27.1 72.7922 27.1Z" fill="#FAEBEF"/>
</svg>
